<svg width="100%" viewBox="0 0 100 100" fill="none" xmlns="http://www.w3.org/2000/svg">
<path d="M71.7417 16.6663C72.1167 20.812 73.8791 24.6661 76.6666 27.641C79.4541 24.666 81.2165 20.812 81.5915 16.6663H71.7417Z" fill="#3083FF"/>
<path fill-rule="evenodd" clip-rule="evenodd" d="M76.6666 46.6657C89.5538 46.6657 99.9995 36.2201 99.9995 23.3329C99.9995 10.4457 89.5538 0 76.6666 0C63.7794 0 53.3337 10.4457 53.3337 23.3329C53.3337 32.941 59.1419 41.1949 67.4423 44.7703C67.0714 46.2037 66.5131 47.6953 65.7048 49.0119C65.2423 49.7661 65.959 51.041 66.7964 50.766C69.3214 49.9285 72.2879 48.5744 74.8463 46.5952C75.4463 46.6411 76.0541 46.6657 76.6666 46.6657ZM63.3335 14.9992C63.3335 14.0784 64.0794 13.3325 65.0002 13.3325H75V9.99927C75 9.07845 75.7458 8.33263 76.6666 8.33263C77.5874 8.33263 78.3332 9.07845 78.3332 9.99927V13.3325H88.333C89.2539 13.3325 89.9997 14.0784 89.9997 14.9992C89.9997 15.92 89.2539 16.6658 88.333 16.6658H84.9373C84.5539 21.6449 82.4831 26.2822 79.1582 29.857C79.9582 30.4445 80.8082 30.9778 81.7123 31.4403L85.7622 33.5153C86.5789 33.9361 86.9038 34.9402 86.483 35.7611C86.0622 36.5777 85.0581 36.9027 84.2372 36.4819L80.1914 34.407C78.9331 33.7611 77.7539 33.0028 76.6665 32.1487C75.579 33.0028 74.3999 33.7611 73.1415 34.407L69.0958 36.4819C68.2749 36.9027 67.2708 36.5777 66.8499 35.7611C66.4291 34.9403 66.7541 33.9362 67.5707 33.5153L71.6207 31.4403C72.5248 30.9778 73.3748 30.4445 74.1748 29.857C70.8498 26.282 68.779 21.6447 68.3957 16.6658H64.9999C64.0791 16.6658 63.3335 15.92 63.3335 14.9992Z" fill="#3083FF"/>
<path fill-rule="evenodd" clip-rule="evenodd" d="M53.3338 34.9999C53.3338 46.9666 43.634 56.6656 31.6681 56.6656C19.7023 56.6656 10.0024 46.9658 10.0024 34.9999C10.0024 23.0341 19.7023 13.3342 31.6681 13.3342C43.634 13.3342 53.3338 23.0341 53.3338 34.9999ZM28.3338 38.3332C28.3338 37.4124 27.588 36.6666 26.6672 36.6666C25.7464 36.6666 25.0005 37.4124 25.0005 38.3332C25.0005 42.0164 27.9838 44.9997 31.6671 44.9997C35.3503 44.9997 38.3336 42.0164 38.3336 38.3332C38.3336 37.4124 37.5878 36.6666 36.667 36.6666C35.7462 36.6666 35.0003 37.4124 35.0003 38.3332C35.0003 40.1749 33.5087 41.6665 31.6671 41.6665C29.8254 41.6665 28.3338 40.1749 28.3338 38.3332Z" fill="#3083FF"/>
<path d="M31.667 58.3316C37.5711 58.3316 43.0961 59.9482 47.8245 62.7606L43.8413 86.6641H28.3333C24.6501 86.6641 21.6668 89.6474 21.6668 93.3306V99.9972H3.33327C1.4916 99.9972 0 98.5056 0 96.6639V89.9974C0 72.5097 14.1793 58.3316 31.667 58.3316Z" fill="#3083FF"/>
<path d="M76.6666 80.8313C76.6666 83.1312 74.7999 84.9979 72.5 84.9979C70.2001 84.9979 68.3335 83.1312 68.3335 80.8313C68.3335 78.5314 70.2001 76.6648 72.5 76.6648C74.7999 76.6648 76.6666 78.5314 76.6666 80.8313Z" fill="#3083FF"/>
<path fill-rule="evenodd" clip-rule="evenodd" d="M25.0005 93.3314C25.0005 91.4897 26.4921 89.9981 28.3338 89.9981H46.6673L51.2047 62.7816C51.4713 61.1775 52.863 59.9983 54.4921 59.9983H96.0667C98.125 59.9983 99.6916 61.8483 99.3541 63.8815L93.8875 96.6638H98.3333C99.2541 96.6638 99.9999 97.4096 99.9999 98.3304C99.9999 99.2512 99.2541 99.9971 98.3333 99.9971H25.0014L25.0005 93.3314ZM79.9989 80.8314C79.9989 84.9729 76.6406 88.3312 72.4991 88.3312C68.3575 88.3312 64.9993 84.9729 64.9993 80.8314C64.9993 76.6898 68.3575 73.3316 72.4991 73.3316C76.6406 73.3316 79.9989 76.6898 79.9989 80.8314Z" fill="#3083FF"/>
</svg>
