<svg width="100%" viewBox="0 0 68 100" fill="none" xmlns="http://www.w3.org/2000/svg">
<path d="M33.7537 42.4816C45.4847 42.4816 54.9945 32.9718 54.9945 21.2408C54.9945 9.50983 45.4847 0 33.7537 0C22.0228 0 12.5129 9.50983 12.5129 21.2408C12.5129 32.9718 22.0228 42.4816 33.7537 42.4816Z" fill="#3083FF" />
<path d="M47.3186 46.4773C43.3228 48.6855 38.591 49.9473 33.7539 49.9473C28.8118 49.9473 24.1851 48.6855 20.1893 46.4773C8.83281 48.1597 0 57.8338 0 69.716V94.9526C0 97.6866 2.2082 99.9999 5.04732 99.9999H62.5657C65.2997 99.9999 67.613 97.7917 67.613 94.9526V69.716C67.5079 57.8338 58.7802 48.0546 47.3186 46.4773ZM39.5373 88.9589L34.3849 93.6908C34.0694 94.0062 33.5436 94.0062 33.2282 93.6908L28.0757 88.9589C27.8654 88.7486 27.7603 88.4331 27.7603 88.1177L31.8612 64.7738C31.8612 64.7738 30.5994 64.7738 29.7582 64.7738C29.2324 64.7738 28.9169 64.3532 28.9169 63.9326C28.9169 62.3553 28.9169 59.2007 28.9169 57.6235C28.9169 57.0977 29.3375 56.7822 29.7582 56.7822H37.8549C38.3807 56.7822 38.6961 57.2028 38.6961 57.6235V63.9326C38.6961 64.4584 38.2755 64.7738 37.8549 64.7738C37.0137 64.7738 35.7518 64.7738 35.7518 64.7738L39.8528 88.1177C39.8528 88.4331 39.7476 88.7486 39.5373 88.9589Z" fill="#3083FF" />
</svg>
