<svg width="179" height="209" viewBox="0 0 179 209" fill="none" xmlns="http://www.w3.org/2000/svg">
<path d="M2.26667 2.55325C0.266667 4.81992 0 9.88658 0 48.0199C0 73.8866 0.533333 92.0199 1.33333 93.4866C2 94.8199 4.93333 96.6866 7.6 97.4866C15.6 100.153 32.9333 109.487 41.8667 116.02C54.1333 124.953 66 136.82 76.1333 150.287C81.2 157.087 86.2667 162.82 87.4667 163.353C90.8 164.687 94.2667 161.887 100.133 153.22C116.267 129.62 147.067 105.353 171.067 97.6199C173.733 96.6866 176.667 94.8199 177.333 93.4866C178.133 92.0199 178.667 73.7533 178.667 47.7533C178.667 -6.78009 179.6 -5.04675 155.333 6.68658C138.8 14.6866 124.667 24.5533 113.333 36.1533C105.6 44.0199 94.4 57.6199 90.6667 64.0199C89.4667 66.0199 89.2 66.0199 88 64.0199C80.4 51.3533 62.9333 32.5533 48.6667 21.7533C38.5333 14.1532 11.8667 0.153248 7.2 0.153248C5.73333 0.153248 3.46667 1.21992 2.26667 2.55325Z" fill="#3083FF"/>
<path d="M7.59989 134.553C2.66656 140.02 5.46656 143.487 19.3332 148.953C39.4666 156.953 63.9999 177.22 77.9999 197.22C86.7999 209.887 91.4666 211.22 96.5332 202.82C101.2 194.82 117.333 176.687 125.6 169.887C137.2 160.42 152 151.62 162.8 147.487C172 143.887 174.267 141.487 172.4 136.687C170.133 130.287 166.4 130.687 148.667 139.22C127.067 149.753 109.067 164.287 93.7332 183.487L89.4666 188.82L85.0666 183.487C67.0666 161.487 48.2666 146.953 24.2666 136.42C13.1999 131.487 10.5332 131.22 7.59989 134.553Z" fill="#3083FF"/>
</svg>
