<svg width="100%" viewBox="0 0 91 100" fill="none" xmlns="http://www.w3.org/2000/svg">
<path d="M41.744 0.272368C37.9176 1.10092 35.2361 2.48686 32.8559 4.88213C29.3308 8.43737 27.6436 12.5651 27.6436 17.6569C27.6436 19.9769 27.8545 21.3025 28.6077 23.5321C29.5266 26.2588 30.7167 28.3226 32.4944 30.1906C33.9707 31.7423 35.2512 32.6914 37.0589 33.5651C41.6838 35.8248 46.3387 36.2165 50.7376 34.7402C53.7053 33.761 55.3624 32.7366 57.5769 30.5823C59.7613 28.4281 61.1171 26.0479 62.1264 22.5077C63.2111 18.7114 63.1056 15.4575 61.7498 11.7215C59.701 5.99691 55.4076 2.0048 49.6379 0.468207C47.6192 -0.0590535 43.7325 -0.164506 41.744 0.272368Z" fill="#3083FF"/>
<path d="M31.4851 37.3918C29.9184 37.9793 27.7039 38.8079 26.5891 39.1996C23.7419 40.224 23.0791 40.5554 22.0697 41.5045C21.2864 42.2276 19.8101 44.427 19.8101 44.8639C19.8101 44.9392 20.0662 45.0748 20.3825 45.1802C21.6479 45.587 29.2254 48.4794 33.6695 50.2419C40.9909 53.1494 42.1358 53.8273 44.049 56.3732L45.1336 57.8345L45.5705 57.1867C46.7606 55.394 48.5533 53.8424 50.6171 52.8029C51.8073 52.2154 55.9199 50.5432 58.978 49.4134C60.0928 48.9916 62.0964 48.2383 63.4221 47.7111C65.8625 46.7771 68.3783 45.8129 69.7492 45.3158C70.1559 45.1652 70.5175 44.9693 70.5476 44.894C70.6079 44.6981 69.5985 43.0109 69.0261 42.3481C67.8209 40.9621 66.7815 40.4349 61.087 38.2354C59.5505 37.6479 57.7879 36.97 57.1702 36.7139C56.5526 36.4729 55.9651 36.277 55.8596 36.277C55.7542 36.277 55.4378 36.744 55.1215 37.3316C54.1573 39.1694 51.9428 41.2936 50.1652 42.0769C48.1315 42.9808 47.4385 43.1314 45.1939 43.1314C42.7685 43.1314 41.6989 42.8753 39.6501 41.8208C37.752 40.8265 35.3567 38.3409 34.7391 36.6838C34.6487 36.4578 34.5282 36.277 34.4679 36.2921C34.3926 36.2921 33.0669 36.7892 31.4851 37.3918Z" fill="#3083FF"/>
<path d="M8.43634 43.3422C7.65298 43.6737 7.21611 44.7131 7.45714 45.617C7.75843 46.7468 7.21611 46.5058 22.5217 52.3207C24.5555 53.1041 27.5684 54.2791 29.2255 54.957C30.8826 55.6349 32.9615 56.4484 33.8352 56.7648C38.1437 58.3164 40.5541 59.4614 41.232 60.2899C41.6688 60.8021 41.5483 60.2899 40.9909 59.1149C40.3883 57.8645 39.2133 56.584 37.9328 55.7555C36.9385 55.1077 35.8388 54.6106 30.1294 52.1852C27.8998 51.2361 24.8116 49.9104 23.275 49.2325C21.7384 48.5546 19.5389 47.5905 18.379 47.0933C17.219 46.5962 14.8087 45.5417 13.016 44.7734C9.74696 43.3422 8.99373 43.1012 8.43634 43.3422Z" fill="#3083FF"/>
<path d="M80.1436 43.5682C79.8122 43.6736 79.1041 43.99 78.5618 44.2611C76.965 45.0746 68.8602 48.5696 62.8946 51.0402C58.4205 52.8931 53.9764 54.8063 52.8917 55.3788C51.5811 56.0567 49.9993 57.5933 49.2913 58.8738C48.4326 60.4405 48.4326 60.4706 49.4118 59.8379C50.5115 59.1449 51.6866 58.6026 53.6299 57.9247C56.8236 56.7949 59.6859 55.7253 60.409 55.4089C60.8308 55.2281 61.81 54.8515 62.5933 54.5804C63.3767 54.2941 64.5367 53.8573 65.1543 53.6012C65.772 53.3451 67.6099 52.622 69.2218 52.0194C76.4528 49.2927 80.7763 47.5603 81.6651 47.0481C83.3222 46.0689 83.0209 43.7791 81.1981 43.4627C80.9571 43.4175 80.475 43.4778 80.1436 43.5682Z" fill="#3083FF"/>
<path d="M6.17651 55.1678V61.4045L9.49072 61.4648C12.594 61.5251 12.8803 61.5552 13.9046 61.9167C15.4714 62.4741 16.541 63.152 17.7913 64.3723C19.9154 66.4512 20.9247 68.6657 20.9247 71.2267C20.9097 75.9117 17.6557 79.9792 12.9706 81.1693C11.9914 81.4103 11.2834 81.4706 9.00866 81.4706H6.23677L6.28197 83.2934L6.32716 85.1162L7.30636 85.4778C7.84868 85.6585 9.85227 86.3666 11.7504 87.0445C13.6636 87.7224 15.863 88.4907 16.6464 88.7769C21.4821 90.5244 29.0144 93.2059 33.3681 94.7274C36.14 95.7066 38.5353 96.5502 38.6859 96.6105C38.9269 96.7159 38.942 95.8271 38.942 79.1657V61.6004L38.234 61.284C35.2813 59.9583 30.4004 58.0753 14.914 52.2453C12.0216 51.1606 8.87308 49.9705 7.93907 49.5939C7.02013 49.2323 6.23677 48.9311 6.20664 48.9311C6.19158 48.9311 6.17651 51.7331 6.17651 55.1678Z" fill="#3083FF"/>
<path d="M81.8008 49.8651C80.7312 50.2869 78.351 51.2059 76.5282 51.8988C71.105 53.9627 70.1107 54.3544 68.77 54.9117C68.0619 55.198 66.435 55.8307 65.1545 56.3127C63.874 56.7948 62.006 57.5029 61.0117 57.8945C60.0174 58.2711 58.6918 58.7833 58.0741 59.0244C54.8051 60.2747 51.8826 61.4347 51.6717 61.5402C51.4607 61.6607 51.4306 63.4986 51.4457 79.1356C51.4457 88.7318 51.4758 96.6105 51.4909 96.6256C51.5361 96.6859 54.5339 95.6765 56.7183 94.8781C59.912 93.7181 62.1867 92.9046 66.0583 91.5639C70.3216 90.0876 78.0949 87.3759 79.6165 86.8336C80.1588 86.6378 81.3489 86.216 82.2528 85.8845L83.9099 85.282L83.9551 83.3989L84.0003 81.5007L80.8668 81.4405C78.5168 81.3802 77.5074 81.3049 76.8295 81.1091C72.9278 79.9943 70.186 76.891 69.5232 72.8235C69.2972 71.4527 69.3424 70.5036 69.6588 69.2382C70.4271 66.2403 72.4005 63.83 75.067 62.6248C77.176 61.6757 77.8087 61.5552 81.0175 61.4648L83.9852 61.4046V55.2432C83.9852 51.8536 83.94 49.0817 83.8797 49.0968C83.8044 49.1119 82.8855 49.4584 81.8008 49.8651Z" fill="#3083FF"/>
<path d="M41.6839 80.8981C41.7291 97.8458 41.7291 98.132 42.0304 98.6442C42.2262 98.9907 42.6179 99.3221 43.1452 99.5933C43.8381 99.9397 44.1545 100 45.1789 100C46.9264 99.9849 47.996 99.4275 48.4178 98.2977C48.6136 97.8006 48.6588 63.7847 48.478 63.8751C46.8058 64.7037 46.3087 64.8995 45.6459 64.9748C44.6667 65.1104 43.5368 64.8091 42.5124 64.1463C42.1208 63.9052 41.7592 63.6943 41.714 63.6943C41.6839 63.6943 41.6688 71.4375 41.6839 80.8981Z" fill="#3083FF"/>
<path d="M4.21809 65.0201C2.59111 65.5925 1.28049 66.7977 0.482067 68.4849C0.0150646 69.449 0 69.5696 0 71.3773C0 73.2152 0.0150646 73.2905 0.512196 74.2848C1.2353 75.731 2.35008 76.8307 3.79628 77.5237L4.97132 78.0811H8.88811H12.82L13.9347 77.5237C15.9986 76.5143 17.1586 74.9928 17.6406 72.7482C17.9419 71.2568 17.7461 69.916 16.9778 68.3644C16.33 67.0236 15.4111 66.0746 14.0703 65.3515L13.1062 64.8242L9.03876 64.7941C5.49858 64.764 4.86586 64.7941 4.21809 65.0201Z" fill="#3083FF"/>
<path d="M77.0552 64.9598C75.0667 65.713 73.967 66.6771 73.1685 68.3493C72.6865 69.3586 72.6262 69.6147 72.566 71.0609C72.5208 72.4017 72.566 72.8084 72.8221 73.5466C73.4849 75.4146 74.9914 77.1018 76.5731 77.7345C77.3716 78.0509 77.6879 78.081 81.0323 78.1262C85.2353 78.1865 86.0036 78.0358 87.5552 76.8909C91.6076 73.9232 90.9598 67.4454 86.4103 65.2912L85.4161 64.8242L81.4993 64.7941C78.5466 64.7639 77.4469 64.8091 77.0552 64.9598Z" fill="#3083FF"/>
</svg>
