<svg width="100%" viewBox="0 0 72 100" fill="none" xmlns="http://www.w3.org/2000/svg">
<path d="M66.9891 95.4643C66.7351 93.0356 65.9049 90.7569 64.8953 88.5504C64.4511 87.5797 63.7667 86.7379 63.2208 85.823C62.414 84.4709 61.3411 83.3434 60.2237 82.2911C59.3151 81.4353 58.3195 80.646 57.2658 79.9285C55.2425 78.5511 53.0484 77.5812 50.7854 76.7034C49.8378 76.3359 49.1036 76.5896 48.3907 77.1354C47.2889 77.9788 46.2618 78.931 45.1073 79.6918C43.6227 80.6701 42.3877 81.9733 40.8086 82.8876C39.9782 83.6384 39.1241 84.1153 37.9644 84.0652C36.088 83.984 34.2035 83.9925 32.3264 84.0645C31.3748 84.101 30.6538 83.722 29.9427 83.2088C29.7136 83.0435 29.4981 82.8592 29.269 82.6938C27.5698 81.467 25.9272 80.1664 24.2736 78.8797C23.3194 78.1372 22.3333 77.435 21.3501 76.7307C21.0584 76.5219 20.7442 76.3084 20.3432 76.4581C19.3806 76.8177 18.3907 77.118 17.4605 77.5475C15.7414 78.3414 14.0599 79.1997 12.5288 80.3489C10.7757 81.6648 9.17768 83.1297 7.84148 84.8589C6.47872 86.6224 5.42797 88.5755 4.61959 90.6536C4.38655 91.2526 4.15658 91.8589 4.00012 92.4807C3.46654 94.6011 3.16084 96.7491 3.25856 98.9472C3.30489 99.9893 3.26847 99.9888 4.28439 99.9882C14.8115 99.9827 25.3386 99.9741 35.8657 99.974C44.2543 99.9739 52.643 99.9906 61.0316 99.9852C62.869 99.9841 64.7076 100.052 66.5448 99.9063C66.9576 99.8736 67.1109 99.7452 67.1234 99.3354C67.1631 98.0413 67.123 96.7446 66.9891 95.4643ZM38.089 94.0688C38.089 94.4692 37.7615 94.7967 37.3612 94.7967H33.0557C32.6554 94.7967 32.3278 94.4692 32.3278 94.0688V89.7634C32.3278 89.363 32.6554 89.0355 33.0557 89.0355H37.3612C37.7615 89.0355 38.089 89.363 38.089 89.7634V94.0688Z" fill="#3083FF"/>
<path d="M70.5619 20.5024C69.3922 19.7859 37.465 1.36039 35.7139 0.163059C35.3779 -0.0666942 35.0586 -0.0444375 34.7005 0.171966C33.4611 0.921023 2.45973 19.0336 0.647596 20.0499C0.168824 20.3184 -0.00290249 20.6 3.70241e-05 21.1328C0.0199841 24.7514 0.0198139 38.2963 0.0325863 41.45C0.0357775 42.2382 0.0637282 42.2527 0.868502 42.2534C2.28364 42.2548 3.69878 42.2544 5.11391 42.2505C5.93474 42.2483 5.9691 42.2134 5.96986 41.398C5.97359 37.3951 5.97559 33.3923 5.97814 29.3895C5.97879 28.3787 5.90916 25.8732 6.13381 25.7431C6.36831 25.6072 7.26836 26.2803 7.55431 26.4312C8.18724 26.7654 8.78234 27.0482 8.77463 28.0115C8.72532 34.177 8.74695 40.343 8.74216 46.5088C8.74193 46.807 8.79102 47.1178 8.5855 47.4253C8.14231 47.2585 7.85094 47.5554 7.57814 47.832C6.49019 48.9353 5.68372 50.2227 5.45523 51.7655C4.99389 54.8804 6.13898 57.4164 8.44785 59.4684C8.88252 59.8547 9.39308 60.1562 9.87188 60.4921C10.8072 61.1484 11.7994 61.5923 12.9855 61.3392C13.2589 61.2809 13.446 61.4175 13.5641 61.6693C13.6837 61.9243 13.8149 62.1744 13.9503 62.4215C14.7832 63.9417 15.6375 65.4456 16.6283 66.8748C17.9259 68.7465 19.4053 70.4525 21.1728 71.8765C23.0867 73.4184 25.0833 74.8573 27.0352 76.3524C28.4252 77.4172 29.8524 78.4331 31.1975 79.5576C31.8785 80.127 32.6405 80.4622 33.5882 80.3738C34.47 80.2915 35.3688 80.3076 36.2543 80.367C37.4491 80.4471 38.5486 80.3369 39.4043 79.3079C40.0128 78.8692 40.5935 78.4658 41.1569 78.0396C42.9726 76.6662 44.8009 75.3084 46.5869 73.8973C47.7249 72.9982 48.9371 72.1975 50.0093 71.208C50.9018 70.3843 51.7258 69.5108 52.5031 68.5795C54.1175 66.6449 55.4251 64.5256 56.4374 62.2242C56.5815 61.8966 56.7169 61.6985 57.1039 61.6454C59.0991 61.3718 60.8736 60.5691 62.329 59.1831C63.4989 58.069 64.2411 56.6794 64.7347 55.121C65.6512 52.2266 64.5884 49.0353 62.0767 47.4063C61.7849 47.217 61.6734 47.0048 61.6737 46.6663C61.6787 40.2982 61.6778 33.9301 61.6686 27.5621C61.668 27.1807 61.8353 26.9922 62.1557 26.8177C62.7356 26.5021 69.5385 22.1931 70.5382 21.6638C71.3551 21.2312 71.3725 20.999 70.5619 20.5024ZM24.7991 54.6722C23.3144 54.6722 22.1108 53.4686 22.1108 51.9839C22.1108 50.4992 23.3144 49.2956 24.7991 49.2956C26.2838 49.2956 27.4874 50.4992 27.4874 51.9839C27.4874 53.4686 26.2838 54.6722 24.7991 54.6722ZM40.8615 67.775C40.8458 69.7801 40.1385 71.4766 38.5602 72.7533C37.6621 73.4798 36.6395 73.9326 35.4615 73.9657C33.6668 74.0874 32.2483 73.3409 31.1892 72.2056C29.8603 70.7813 29.2773 68.9629 29.5256 66.9566C29.5732 66.5714 29.8297 66.5286 30.1338 66.5289C31.0227 66.5298 31.9116 66.5293 32.8005 66.5294C35.0631 66.5297 37.3258 66.5301 39.5884 66.5304C40.8265 66.5306 40.8709 66.5687 40.8615 67.775ZM31.855 60.0172L34.6465 57.2257C34.9296 56.9426 35.3928 56.9426 35.6759 57.2257L38.4673 60.0172C38.7504 60.3002 38.7504 60.7634 38.4673 61.0465L35.6759 63.838C35.3928 64.1211 34.9296 64.1211 34.6465 63.838L31.855 61.0465C31.5719 60.7634 31.5719 60.3002 31.855 60.0172ZM45.6059 54.6722C44.1212 54.6722 42.9176 53.4686 42.9176 51.9839C42.9176 50.4992 44.1212 49.2956 45.6059 49.2956C47.0906 49.2956 48.2942 50.4992 48.2942 51.9839C48.2942 53.4686 47.0906 54.6722 45.6059 54.6722ZM55.0277 49.5868C54.2191 49.591 53.4092 49.5619 52.6021 49.598C52.015 49.6243 51.8256 49.389 51.8287 48.8198C51.8457 45.6459 51.8399 42.4718 51.8335 39.2978C51.8329 39.0283 51.9232 38.7263 51.6504 38.4781C50.8444 38.793 38.4467 46.274 36.5168 47.6469C35.5291 48.3496 35.0127 48.2718 34.0501 47.6753C30.7239 45.6143 20.8494 39.6481 19.2862 38.648C18.8109 38.3439 18.6766 38.4492 18.6762 39.1177C18.6742 42.2918 18.6775 45.4658 18.6776 48.6398C18.6776 49.58 18.6695 49.5867 17.7322 49.5903C17.3482 49.5918 15.6096 49.576 15.1859 49.5949C14.7726 49.6134 14.5924 49.4359 14.5955 49.027C14.6011 48.2993 14.5906 47.5715 14.5907 46.8438C14.591 42.0929 14.5924 37.342 14.593 32.591C14.593 32.4092 14.5836 32.2273 14.5855 32.0454C14.5875 31.8579 14.4273 31.6225 14.6809 31.502C14.8772 31.4087 15.008 31.6 15.1591 31.6923C16.6729 32.6161 32.9527 42.5718 34.5006 43.5574C35.0951 43.9359 35.5797 43.8467 36.1217 43.5139C38.6165 41.9822 54.8792 31.9406 55.3413 31.6945C55.6766 31.5159 55.8881 31.5871 55.9012 32.0029C55.9057 32.1443 55.9055 32.2859 55.9055 32.4274C55.9075 37.8455 55.9095 43.2636 55.9105 48.6816C55.9107 49.5308 55.8606 49.5825 55.0277 49.5868Z" fill="#3083FF"/>
</svg>
